<svg viewBox="0 0 472 449" xmlns="http://www.w3.org/2000/svg">
	<title>RunKit</title>
	<path id="logo" fill="#F55FA6" d="M471.213 279.573l-26.034-141.614a58.974 58.974 0 0 0-23.382-39.161c-1.695-1.251-3.508-2.336-5.334-3.389L268.317 9.904c-22.111-12.83-42.492-13.015-64.471-.368L55.379 95.383a58.11 58.11 0 0 0-9.523 6.877c-10.35 9.213-17.256 21.8-19.233 35.699L.589 279.573C-2.8 303.41 8.64 326.914 29.491 338.952l176.922 102.147a58.976 58.976 0 0 0 58.977-.001l176.921-102.146c20.852-12.038 32.291-35.542 28.902-59.379"/>
	<path id="shading" fill="#DB4792" d="M241.469 421.484c-1.723-4.442-2.446-9.209-2.446-13.973V257.437c0-26-26.521-41.256-26.521-41.256S88.935 143.967 62 128.575c-30.941-17.681-6.621-33.192-6.621-33.192a58.06 58.06 0 0 0-9.522 6.877c-10.351 9.213-17.257 21.8-19.233 35.699L.589 279.573C-2.8 303.41 8.64 326.914 29.492 338.952l176.922 102.147a58.976 58.976 0 0 0 58.977-.001l13.918-8.036c-24.304 10.29-34.008-1.701-37.84-11.578"/>
	<path id="arrow" fill="#FFF" d="M283.576 67.812a9.824 9.824 0 0 1-.005 0l-151.54 31.311c-8.429 1.588-10.047 12.608-2.717 16.997l110.024 63.442c4.585 2.546 10.108 1.413 12.44-3.64l31.084-70.944v.011l10.436-23.819c3.14-7.066-2.147-14.784-9.722-13.358"/>
</svg>
